<svg width="250" height="173" viewBox="0 0 250 173" fill="none" xmlns="http://www.w3.org/2000/svg">
<path d="M104.81 19.27V0H48.68L0 84.87L47.67 170.4H114.27L148.08 18.6L188.32 19.95L225.17 85.2L188.99 150.12L141.55 149.78L141.43 172.55L200.38 171.87L249.06 86.27L199.93 0H131.29L96.69 150.79H59.84L20.96 84.53L57.81 19.27H104.81Z" fill="white"/>
<path d="M153.49 33.1401H176.49L206.91 86.2701L176.49 137.61H151.47L179.19 85.3701L153.49 33.1401Z" fill="white"/>
<path d="M90.9395 33.5H67.9495L37.5195 86.63L67.9495 137.97H92.9695L65.2395 85.73L90.9395 33.5Z" fill="white"/>
</svg>
